<svg width="16" height="16" viewBox="0 0 16 16" fill="none" xmlns="http://www.w3.org/2000/svg">
<g clip-path="url(#clip0_0_144)">
<path d="M8 1.5C11.6 1.5 14.5 4.4 14.5 8C14.5 11.6 11.6 14.5 8 14.5C4.4 14.5 1.5 11.6 1.5 8C1.5 4.4 4.4 1.5 8 1.5ZM8 0C3.6 0 0 3.6 0 8C0 12.4 3.6 16 8 16C12.4 16 16 12.4 16 8C16 3.6 12.4 0 8 0Z" fill="white"/>
<path d="M9.9 10.3C9.4 10.7 8.7 11 8 11C6.3 11 5 9.7 5 8C5 6.3 6.3 5 8 5C8.8 5 9.6 5.3 10.1 5.9L11.2 4.8C10.4 4 9.2 3.5 8 3.5C5.5 3.5 3.5 5.5 3.5 8C3.5 10.5 5.5 12.5 8 12.5C9.1 12.5 10 12.1 10.8 11.5L9.9 10.3Z" fill="white"/>
</g>
<defs>
<clipPath id="clip0_0_144">
<rect width="16" height="16" fill="white"/>
</clipPath>
</defs>
</svg>
