<svg width="38" height="39" viewBox="0 0 38 39" fill="none" xmlns="http://www.w3.org/2000/svg">
<path d="M21.4647 14.759L30.9423 5.28137L33.2207 7.55983L23.7431 17.0374L22.8896 17.891H24.0967H37.5V21.1132H24.0967H22.8896L23.7431 21.9667L33.2207 31.4443L30.9422 33.7228L21.4647 24.2452L20.6111 23.3916V24.5988V38.0021H17.3889V24.5988V23.3916L16.5353 24.2452L7.05776 33.7228L4.7793 31.4443L14.2569 21.9667L15.1104 21.1132H13.9033H0.5V17.891H13.9033H15.1104L14.2569 17.0374L4.7793 7.55983L7.05775 5.28138L16.5353 14.759L17.3889 15.6125V14.4054V1.00208H20.6111V14.4054V15.6125L21.4647 14.759Z" stroke="black"/>
</svg>
