<svg width="42" height="41" viewBox="0 0 42 41" fill="none" xmlns="http://www.w3.org/2000/svg">
<path d="M29.4075 10.2205L29.7586 9.86937L29.4099 9.51583L21.1539 1.14678L20.8004 0.788405L20.4444 1.14437L12.0754 9.51342L11.7194 9.86939L12.0778 10.2229L20.4468 18.4789L20.8004 18.8276L21.1515 18.4765L29.4075 10.2205ZM40.0408 20.8491L40.3896 20.4955L40.0384 20.1444L31.7825 11.8884L31.4289 11.5349L31.0754 11.8884L22.8194 20.1444L22.4683 20.4955L22.817 20.8491L31.073 29.2181L31.4289 29.5789L31.7849 29.2181L40.0408 20.8491ZM18.7765 20.8515L19.1325 20.4955L18.7741 20.142L10.4051 11.886L10.0539 11.5396L9.70278 11.886L1.33374 20.142L0.975355 20.4955L1.33132 20.8515L9.70037 29.2205L10.0539 29.5741L10.4075 29.2205L18.7765 20.8515ZM29.4075 31.5955L29.7586 31.2444L29.4099 30.8908L21.1539 22.5218L20.8004 22.1634L20.4444 22.5194L12.0754 30.8884L11.7194 31.2444L12.0778 31.5979L20.4468 39.8539L20.8004 40.2026L21.1515 39.8515L29.4075 31.5955Z" stroke="black"/>
</svg>
