<svg width="39" height="39" viewBox="0 0 39 39" fill="none" xmlns="http://www.w3.org/2000/svg">
<path d="M1.18488 1.00473C10.7425 1.26503 18.4428 8.96528 18.7031 18.5229H14.9349C7.34096 18.5229 1.18488 12.3668 1.18488 4.77293V1.00473ZM20.6667 18.5229C20.927 8.96528 28.6272 1.26503 38.1849 1.00473V4.77293C38.1849 12.3668 32.0288 18.5229 24.4349 18.5229H20.6667ZM18.7031 20.4729C18.4428 30.0306 10.7425 37.7308 1.18488 37.9911V34.2229C1.18488 26.629 7.34096 20.4729 14.9349 20.4729H18.7031ZM38.1849 37.9911C28.6272 37.7308 20.927 30.0306 20.6667 20.4729H24.4349C32.0288 20.4729 38.1849 26.629 38.1849 34.2229V37.9911Z" stroke="black"/>
</svg>
